<svg width="16" height="16" viewBox="0 0 16 16" fill="none" xmlns="http://www.w3.org/2000/svg">
<g clip-path="url(#clip0_1_70)">
<path d="M7.99334 1.33333C4.31334 1.33333 1.33334 4.31999 1.33334 8C1.33334 11.68 4.31334 14.6667 7.99334 14.6667C11.68 14.6667 14.6667 11.68 14.6667 8C14.6667 4.31999 11.68 1.33333 7.99334 1.33333ZM8 13.3333C5.05334 13.3333 2.66667 10.9467 2.66667 8C2.66667 5.05333 5.05334 2.66666 8 2.66666C10.9467 2.66666 13.3333 5.05333 13.3333 8C13.3333 10.9467 10.9467 13.3333 8 13.3333ZM8.33334 4.66666H7.33334V8.66666L10.8333 10.7667L11.3333 9.94666L8.33334 8.16666V4.66666Z" fill="#888888"/>
</g>
<defs>
<clipPath id="clip0_1_70">
<rect width="16" height="16" fill="white"/>
</clipPath>
</defs>
</svg>
